<svg version="1.2" xmlns="http://www.w3.org/2000/svg" viewBox="0 0 230 230" width="230" height="230">
	<title>Talk Drill-EPS</title>
	<defs>
		<linearGradient id="g1" x2="1" gradientUnits="userSpaceOnUse" gradientTransform="matrix(123.559,79.155,-77.066,120.299,141.647,11.265)">
			<stop offset="0" stop-color="#1e1b9e" stop-opacity="1"/>
			<stop offset=".989" stop-color="#4c3fe2" stop-opacity="0"/>
		</linearGradient>
		<linearGradient id="g2" x2="1" gradientUnits="userSpaceOnUse" gradientTransform="matrix(77.599,134.154,-170.54,98.646,114.571,-21.146)">
			<stop offset="0" stop-color="#ffffff" stop-opacity=".35"/>
			<stop offset=".989" stop-color="#4c3fe2" stop-opacity="0"/>
		</linearGradient>
		<linearGradient id="g3" x2="1" gradientUnits="userSpaceOnUse" gradientTransform="matrix(14.507,22.397,-11.9,7.708,90.625,149.223)">
			<stop offset="0" stop-color="#1e1b9e" stop-opacity="1"/>
			<stop offset=".989" stop-color="#4c3fe2" stop-opacity="0"/>
		</linearGradient>
	</defs>
	<style>
		.s0 { fill: #4c3fe2 } 
		.s1 { fill: #f5a623 } 
		.s2 { fill: url(#g1) } 
		.s3 { fill: url(#g2) } 
		.s4 { fill: url(#g3) } 
	</style>
	<g id="Layer 1">
		<g id="&lt;Group&gt;">
			<g id="&lt;Group&gt;">
				<path id="&lt;Compound Path&gt;" class="s0" d="m263.5 65.5h-33.6v-24.5h97.9v24.5h-33.4v84.7h-30.9z"/>
				<path id="&lt;Compound Path&gt;" fill-rule="evenodd" class="s0" d="m413.2 103.2v47h-27.7v-10.9c-4.2 8.1-12.6 12.3-24.9 12.3-20.3 0-31.6-11.4-31.6-26 0-15.7 11.4-25.3 37.7-25.3h16.8c-0.5-8.6-6.2-13.5-17.9-13.5-8.1 0-17.2 2.9-23 7.4l-10-20.2c9.7-6.3 24.1-9.8 37.3-9.8 27.5 0 43.3 12.2 43.3 39zm-29.7 19.9v-7.4h-12.8c-9.5 0-12.9 3.5-12.9 8.6 0 5 4 8.6 11 8.6 6.6 0 12.4-3.1 14.7-9.8z"/>
				<path id="&lt;Compound Path&gt;" class="s0" d="m431.9 34.4h29.7v115.8h-29.7z"/>
				<path id="&lt;Compound Path&gt;" class="s0" d="m519.1 120.6l-8.7 8.9v20.7h-29.7v-115.8h29.7v60.7l30.3-29.5h35.1l-35.1 36.2 38.1 48.4h-35.9z"/>
				<path id="&lt;Compound Path&gt;" fill-rule="evenodd" class="s0" d="m589.2 41h51.7c36.2 0 61 21 61 54.6 0 33.5-24.8 54.6-61 54.6h-51.7zm50.4 84.6c18.6 0 31.1-11.1 31.1-30 0-18.8-12.5-29.9-31.1-29.9h-19.5v59.9z"/>
				<path id="&lt;Compound Path&gt;" class="s0" d="m774.8 64.2v26.7c-2.7-0.3-4.5-0.5-6.7-0.5-12 0-20.3 6.1-20.3 21v38.8h-29.7v-84.6h28.3v10.2c6.1-7.7 15.9-11.6 28.4-11.6z"/>
				<path id="&lt;Compound Path&gt;" class="s0" d="m783.7 40.5c0-8.9 7.2-15.8 18.1-15.8 10.9 0 18.1 6.4 18.1 15.3 0 9.4-7.2 16.3-18.1 16.3-10.9 0-18.1-6.9-18.1-15.8zm3.3 25.1h29.6v84.6h-29.6z"/>
				<path id="&lt;Compound Path&gt;" class="s0" d="m835.8 34.4h29.7v115.8h-29.7z"/>
				<path id="&lt;Compound Path&gt;" class="s0" d="m884.7 34.4h29.6v115.8h-29.6z"/>
			</g>
			<g id="&lt;Group&gt;">
				<path id="&lt;Compound Path&gt;" class="s1" d="m271.4 180.4q-1.1 0.8-1.1 2.3 0 1.4 1.3 2.2 1.3 0.9 5.9 2 4.7 1.1 7.3 3.4 2.5 2.3 2.5 6.7 0 4.4-3.3 7.1-3.3 2.7-8.6 2.7-7.8 0-14-5.7l4.4-5.3q5.2 4.6 9.7 4.6 2 0 3.2-0.9 1.1-0.8 1.1-2.3 0-1.5-1.2-2.3-1.2-0.9-4.8-1.8-5.7-1.3-8.3-3.5-2.7-2.2-2.7-6.8 0-4.6 3.4-7.2 3.3-2.5 8.3-2.5 3.3 0 6.5 1.1 3.3 1.2 5.7 3.2l-3.7 5.3q-4.2-3.2-8.7-3.2-1.9 0-2.9 0.9z"/>
				<path id="&lt;Compound Path&gt;" fill-rule="evenodd" class="s1" d="m318.2 176.8q3.4 2.9 3.4 8.9 0 6.1-3.5 8.9-3.5 2.8-10.7 2.8h-4.4v9h-7.3v-32.5h11.6q7.5 0 10.9 2.9zm-5.3 12.8q1.3-1.5 1.3-4.3 0-2.8-1.7-4-1.7-1.2-5.3-1.2h-4.2v11h4.9q3.6 0 5-1.5z"/>
				<path id="&lt;Compound Path&gt;" class="s1" d="m353 173.9v6.5h-16.2v6.7h14.6v6.2h-14.6v6.7h16.7v6.4h-24v-32.5z"/>
				<path id="&lt;Compound Path&gt;" fill-rule="evenodd" class="s1" d="m385.5 206.4l-3.1-7h-13.6l-3.1 7h-7.7l14.1-32.5h7l14.1 32.5zm-9.8-22.8l-4.1 9.4h8.1z"/>
				<path id="&lt;Compound Path&gt;" class="s1" d="m399.2 173.9h7.3v13.3l12.3-13.3h9l-13 14.4q1.7 2.3 6.2 8.7 4.5 6.3 6.8 9.4h-8.5l-9.6-12.8-3.2 3.6v9.2h-7.3z"/>
				<path id="&lt;Compound Path&gt;" class="s1" d="m463.7 213.6v-43.6h3.8v43.6z"/>
				<path id="&lt;Compound Path&gt;" class="s1" d="m506.9 206.4v-32.5h7.3v26.1h13.9v6.4z"/>
				<path id="&lt;Compound Path&gt;" class="s1" d="m559.1 173.9v6.5h-16.2v6.7h14.6v6.2h-14.6v6.7h16.7v6.4h-24v-32.5z"/>
				<path id="&lt;Compound Path&gt;" fill-rule="evenodd" class="s1" d="m591.5 206.4l-3-7h-13.6l-3.1 7h-7.7l14.1-32.5h7l14.1 32.5zm-9.9-22.8l-4.1 9.4h8.2z"/>
				<path id="&lt;Compound Path&gt;" fill-rule="evenodd" class="s1" d="m631.7 184.7q0 7.8-6.2 10.1l8.3 11.6h-9l-7.2-10.3h-5v10.3h-7.3v-32.5h12.3q7.6 0 10.9 2.5 3.2 2.6 3.2 8.3zm-8.7 3.9q1.3-1.3 1.3-3.9 0-2.6-1.4-3.6-1.4-1-4.9-1h-5.4v9.7h5.3q3.7 0 5.1-1.2z"/>
				<path id="&lt;Compound Path&gt;" class="s1" d="m664.2 173.9h7.3v32.5h-7.3l-15.5-20.4v20.4h-7.3v-32.5h6.8l16 20.9z"/>
				<path id="&lt;Compound Path&gt;" class="s1" d="m710.8 213.6v-43.6h3.9v43.6z"/>
				<path id="&lt;Compound Path&gt;" class="s1" d="m777.6 173.9v6.5h-16.2v6.7h14.6v6.2h-14.6v6.7h16.7v6.4h-24v-32.5z"/>
				<path id="&lt;Compound Path&gt;" class="s1" d="m805.1 173.9h8.8l-10.2 15.7 11 16.8h-8.8l-7-10.7-6.9 10.7h-8.7l10.9-16.6-10.2-15.9h8.7l6.2 9.6z"/>
				<path id="&lt;Compound Path&gt;" class="s1" d="m836.4 200q5.4 0 8.8-4.2l4.6 4.8q-5.5 6.2-13.1 6.2-7.5 0-12.3-4.7-4.9-4.8-4.9-12 0-7.3 4.9-12.1 5-4.9 12.2-4.9 8 0 13.4 6.1l-4.5 5.2q-3.5-4.3-8.6-4.3-4.1 0-7 2.7-2.9 2.6-2.9 7.2 0 4.5 2.7 7.3 2.8 2.7 6.7 2.7z"/>
				<path id="&lt;Compound Path&gt;" class="s1" d="m881.3 173.9v6.5h-16.2v6.7h14.5v6.2h-14.5v6.7h16.7v6.4h-24v-32.5z"/>
				<path id="&lt;Compound Path&gt;" class="s1" d="m890.5 206.4v-32.5h7.3v26.1h13.9v6.4z"/>
			</g>
			<g id="&lt;Group&gt;">
				<path id="&lt;Path&gt;" class="s0" d="m137.8 23.6h-87.6c-19.8 0-35.7 16-35.7 35.7v83.2c0 18.8 14.4 34.1 32.7 35.6v21.6c0 5.9 7.2 9 11.4 4.9l27.6-26.4h51.6c42.7 0 77.3-34.6 77.3-77.3 0-42.7-34.6-77.3-77.3-77.3z"/>
				<path id="&lt;Path&gt;" class="s0" d="m137.8 23.6h-87.6c-19.8 0-35.7 16-35.7 35.7v83.2c0 18.8 14.4 34.1 32.7 35.6v21.6c0 5.9 7.2 9 11.4 4.9l27.6-26.4h51.6c42.7 0 77.3-34.6 77.3-77.3 0-42.7-34.6-77.3-77.3-77.3z"/>
				<path id="&lt;Path&gt;" class="s2" d="m215.1 100.9c0-4.3-0.4-8.6-1.1-12.7l-50.3-32.3-9.5 6.9h-61.9l-3.4 7.6v83.9l19.9 23.9h29c42.7 0 77.3-34.6 77.3-77.3z"/>
				<path id="&lt;Path&gt;" class="s3" d="m22.1 119.4c22.3 10.5 48.9 16.7 77.5 16.7 44.1 0 83.5-14.6 109.6-37.4 0-37.2-30.2-67.3-67.3-67.3h-87.9c-17.6 0-31.9 14.3-31.9 31.9z"/>
				<path id="&lt;Path&gt;" class="s1" d="m187 87.7c-3.7-16.9-13.7-26.4-23.3-31.8-8.2-4.6-17.5-6.8-26.9-6.8h-98.3v20.5h27.2v84.7h23.2v-83.9h47c7.6 0 15.1 2.7 20.6 8 14.2 13.6 6.9 34.1 6.9 34.1-7.1 19.7-27.2 18.9-27.2 18.9v-34.8c0-6.2-5-11.2-11.2-11.2h-11.1v68.9h22.9c9.6 0 19.3-2.4 27.5-7.4 31.1-19 22.7-59.2 22.7-59.2z"/>
				<path id="&lt;Path&gt;" class="s4" d="m65.7 154.3l20.5 23.9h22.6l-19.9-23.9z"/>
			</g>
		</g>
	</g>
</svg>