<svg version="1.2" xmlns="http://www.w3.org/2000/svg" viewBox="0 0 942 224" width="942" height="224">
	<title>Talk Drill-EPS</title>
	<defs>
		<linearGradient id="g1" x2="1" gradientUnits="userSpaceOnUse" gradientTransform="matrix(123.559,79.155,-77.066,120.299,144.647,5.265)">
			<stop offset="0" stop-color="#1e1b9e" stop-opacity="1"/>
			<stop offset=".989" stop-color="#4c3fe2" stop-opacity="0"/>
		</linearGradient>
		<linearGradient id="g2" x2="1" gradientUnits="userSpaceOnUse" gradientTransform="matrix(77.599,134.154,-170.54,98.646,117.571,-27.146)">
			<stop offset="0" stop-color="#ffffff" stop-opacity=".35"/>
			<stop offset=".989" stop-color="#4c3fe2" stop-opacity="0"/>
		</linearGradient>
		<linearGradient id="g3" x2="1" gradientUnits="userSpaceOnUse" gradientTransform="matrix(14.507,22.397,-11.9,7.708,93.625,143.223)">
			<stop offset="0" stop-color="#1e1b9e" stop-opacity="1"/>
			<stop offset=".989" stop-color="#4c3fe2" stop-opacity="0"/>
		</linearGradient>
	</defs>
	<style>
		.s0 { fill: #4c3fe2 } 
		.s1 { fill: url(#g1) } 
		.s2 { fill: url(#g2) } 
		.s3 { fill: #f5a623 } 
		.s4 { fill: url(#g3) } 
	</style>
	<g id="Layer 1">
		<g id="&lt;Group&gt;">
			<path id="&lt;Compound Path&gt;" class="s0" d="m266.5 59.5h-33.6v-24.5h97.9v24.5h-33.4v84.7h-30.9z"/>
			<path id="&lt;Compound Path&gt;" fill-rule="evenodd" class="s0" d="m416.2 97.2v47h-27.7v-10.9c-4.2 8.1-12.6 12.3-24.9 12.3-20.3 0-31.6-11.4-31.6-26 0-15.7 11.4-25.3 37.7-25.3h16.8c-0.5-8.6-6.2-13.5-17.9-13.5-8.1 0-17.2 2.9-23 7.4l-10-20.2c9.7-6.3 24.1-9.8 37.3-9.8 27.5 0 43.3 12.2 43.3 39zm-29.7 19.9v-7.4h-12.8c-9.5 0-12.9 3.5-12.9 8.6 0 5 4 8.6 11 8.6 6.6 0 12.4-3.1 14.7-9.8z"/>
			<path id="&lt;Compound Path&gt;" class="s0" d="m434.9 28.4h29.7v115.8h-29.7z"/>
			<path id="&lt;Compound Path&gt;" class="s0" d="m522.1 114.6l-8.7 8.9v20.7h-29.7v-115.8h29.7v60.7l30.3-29.5h35.1l-35.1 36.2 38.1 48.4h-35.9z"/>
			<path id="&lt;Compound Path&gt;" fill-rule="evenodd" class="s0" d="m592.2 35h51.7c36.2 0 61 21 61 54.6 0 33.5-24.8 54.6-61 54.6h-51.7zm50.4 84.6c18.6 0 31.1-11.1 31.1-30 0-18.8-12.5-29.9-31.1-29.9h-19.5v59.9z"/>
			<path id="&lt;Compound Path&gt;" class="s0" d="m777.8 58.2v26.7c-2.7-0.3-4.5-0.5-6.7-0.5-12 0-20.3 6.1-20.3 21v38.8h-29.7v-84.6h28.3v10.2c6.1-7.7 15.9-11.6 28.4-11.6z"/>
			<path id="&lt;Compound Path&gt;" class="s0" d="m786.7 34.5c0-8.9 7.2-15.8 18.1-15.8 10.9 0 18.1 6.4 18.1 15.3 0 9.4-7.2 16.3-18.1 16.3-10.9 0-18.1-6.9-18.1-15.8zm3.3 25.1h29.6v84.6h-29.6z"/>
			<path id="&lt;Compound Path&gt;" class="s0" d="m838.8 28.4h29.7v115.8h-29.7z"/>
			<path id="&lt;Compound Path&gt;" class="s0" d="m887.7 28.4h29.6v115.8h-29.6z"/>
		</g>
		<g id="&lt;Group&gt;">
			<path id="&lt;Path&gt;" class="s0" d="m140.8 17.6h-87.6c-19.8 0-35.7 16-35.7 35.7v83.2c0 18.8 14.4 34.1 32.7 35.6v21.6c0 5.9 7.2 9 11.4 4.9l27.6-26.4h51.6c42.7 0 77.3-34.6 77.3-77.3 0-42.7-34.6-77.3-77.3-77.3z"/>
			<path id="&lt;Path&gt;" class="s0" d="m140.8 17.6h-87.6c-19.8 0-35.7 16-35.7 35.7v83.2c0 18.8 14.4 34.1 32.7 35.6v21.6c0 5.9 7.2 9 11.4 4.9l27.6-26.4h51.6c42.7 0 77.3-34.6 77.3-77.3 0-42.7-34.6-77.3-77.3-77.3z"/>
			<path id="&lt;Path&gt;" class="s1" d="m218.1 94.9c0-4.3-0.4-8.6-1.1-12.7l-50.3-32.3-9.5 6.9h-61.9l-3.4 7.6v83.9l19.9 23.9h29c42.7 0 77.3-34.6 77.3-77.3z"/>
			<path id="&lt;Path&gt;" class="s2" d="m25.1 113.4c22.3 10.5 48.9 16.7 77.5 16.7 44.1 0 83.5-14.6 109.6-37.4 0-37.2-30.2-67.3-67.3-67.3h-87.9c-17.6 0-31.9 14.3-31.9 31.9z"/>
			<path id="&lt;Path&gt;" class="s3" d="m190 81.7c-3.7-16.9-13.7-26.4-23.3-31.8-8.2-4.6-17.5-6.8-26.9-6.8h-98.3v20.5h27.2v84.7h23.2v-83.9h47c7.6 0 15.1 2.7 20.6 8 14.2 13.6 6.9 34.1 6.9 34.1-7.1 19.7-27.2 18.9-27.2 18.9v-34.8c0-6.2-5-11.2-11.2-11.2h-11.1v68.9h22.9c9.6 0 19.3-2.4 27.5-7.4 31.1-19 22.7-59.2 22.7-59.2z"/>
			<path id="&lt;Path&gt;" class="s4" d="m68.7 148.3l20.5 23.9h22.6l-19.9-23.9z"/>
		</g>
		<g id="&lt;Group&gt;">
			<path id="&lt;Compound Path&gt;" fill-rule="evenodd" class="s3" d="m291.5 175.6q4.9 4.4 4.9 12.4 0 7.9-4.7 12.6-4.8 4.6-14.5 4.6h-11.7v-34.1h12q9.2 0 14 4.5zm-5.6 20.2q2.8-2.6 2.8-7.6 0-5-2.8-7.8-2.8-2.7-8.6-2.7h-4.2v20.8h4.8q5.2 0 8-2.7z"/>
			<path id="&lt;Compound Path&gt;" class="s3" d="m316 185.4q-3.2 0-4.8 2.3-1.6 2.3-1.6 6.1v11.4h-7.4v-26.2h7.4v3.4q1.4-1.6 3.5-2.7 2.1-1.1 4.3-1.2l0.1 6.9z"/>
			<path id="&lt;Compound Path&gt;" class="s3" d="m322.9 175.6q-1.3-1.2-1.3-3 0-1.8 1.3-3.1 1.2-1.2 3-1.2 1.8 0 3.1 1.2 1.2 1.3 1.2 3.1 0 1.8-1.2 3-1.3 1.3-3.1 1.3-1.8 0-3-1.3zm6.7 29.6h-7.3v-26.2h7.3z"/>
			<path id="&lt;Compound Path&gt;" class="s3" d="m343.8 205.2h-7.3v-36.2h7.3z"/>
			<path id="&lt;Compound Path&gt;" class="s3" d="m358.1 205.2h-7.4v-36.2h7.4z"/>
			<path id="&lt;Compound Path&gt;" fill-rule="evenodd" class="s3" d="m404.6 175.6q4.9 4.4 4.9 12.4 0 7.9-4.8 12.6-4.7 4.6-14.5 4.6h-11.6v-34.1h12q9.1 0 14 4.5zm-5.6 20.2q2.8-2.6 2.8-7.6 0-5-2.8-7.8-2.8-2.7-8.6-2.7h-4.2v20.8h4.8q5.2 0 8-2.7z"/>
			<path id="&lt;Compound Path&gt;" fill-rule="evenodd" class="s3" d="m437.2 205.2h-6.8v-3.2q-2.8 3.6-7 3.6-4.2 0-7-2.4-2.8-2.5-2.8-6.5 0-4 2.9-6 2.9-2 8-2h5.4v-0.1q0-4.2-4.4-4.2-1.9 0-4 0.7-2.1 0.8-3.6 1.9l-3.3-4.7q5.2-3.8 11.8-3.8 4.8 0 7.8 2.4 3 2.4 3 7.6zm-7.3-10v-1.3h-4.6q-4.4 0-4.4 2.7 0 1.5 1.1 2.2 1 0.8 3 0.8 1.9 0 3.4-1.2 1.5-1.2 1.5-3.2z"/>
			<path id="&lt;Compound Path&gt;" class="s3" d="m444.5 175.6q-1.2-1.2-1.2-3 0-1.8 1.2-3.1 1.3-1.2 3.1-1.2 1.8 0 3 1.2 1.3 1.3 1.3 3.1 0 1.8-1.3 3-1.2 1.3-3 1.3-1.8 0-3.1-1.3zm6.7 29.6h-7.3v-26.2h7.3z"/>
			<path id="&lt;Compound Path&gt;" class="s3" d="m465.5 205.2h-7.3v-36.2h7.3z"/>
			<path id="&lt;Compound Path&gt;" class="s3" d="m476.9 215.5q-3.8 0-7.2-3.1l3.3-5.4q1.8 1.8 3.8 1.8 1 0 1.7-1 0.8-1 0.8-2.1 0-1.2-10.2-26.7h7.8l6.4 16.3 6.4-16.3h7.8l-12.2 30.9q-1.1 2.6-3.3 4.1-2.3 1.5-5.1 1.5z"/>
			<path id="&lt;Compound Path&gt;" class="s3" d="m561.3 177.9q-1.1 0.9-1.1 2.4 0 1.5 1.3 2.4 1.4 0.8 6.2 2 4.9 1.2 7.6 3.6 2.6 2.4 2.6 7 0 4.6-3.4 7.4-3.4 2.9-9 2.9-8.1 0-14.6-6l4.5-5.6q5.5 4.8 10.2 4.8 2.1 0 3.3-0.9 1.2-0.9 1.2-2.4 0-1.5-1.3-2.4-1.2-0.9-5-1.9-5.9-1.4-8.7-3.6-2.7-2.3-2.7-7.2 0-4.8 3.4-7.4 3.5-2.7 8.7-2.7 3.5 0 6.9 1.2 3.4 1.2 5.9 3.3l-3.8 5.6q-4.5-3.4-9.2-3.4-1.9 0-3 0.9z"/>
			<path id="&lt;Compound Path&gt;" fill-rule="evenodd" class="s3" d="m599 178.5q4.5 0 8.1 3.8 3.6 3.9 3.6 9.7 0 5.8-3.6 9.7-3.6 3.9-8.4 3.9-4.8 0-7.7-3.9v12.9h-7.3v-35.6h7.3v2.9q3.4-3.4 8-3.4zm-8.1 13.6q0 3.2 1.8 5.2 1.8 2 4.3 2 2.5 0 4.4-2 1.9-2 1.9-5.2 0-3.1-1.8-5.3-1.9-2.1-4.4-2.1-2.6 0-4.4 2.1-1.8 2.1-1.8 5.3z"/>
			<path id="&lt;Compound Path&gt;" fill-rule="evenodd" class="s3" d="m638.9 201.4q-4.5 4.2-10.4 4.2-6 0-9.9-3.7-3.9-3.7-3.9-9.9 0-6.2 4-9.8 3.9-3.7 9.3-3.7 5.5 0 9.2 3.3 3.8 3.3 3.8 9v3.9h-19.1q0.3 2.1 2.3 3.5 1.9 1.3 4.2 1.3 3.9 0 6.4-2.6zm-7-15.5q-1.6-1.3-3.7-1.3-2.2 0-4 1.3-1.8 1.4-2.1 3.6h11.5q-0.2-2.3-1.7-3.6z"/>
			<path id="&lt;Compound Path&gt;" fill-rule="evenodd" class="s3" d="m668.5 205.2h-6.8v-3.2q-2.8 3.6-7 3.6-4.2 0-7-2.4-2.8-2.5-2.8-6.5 0-4 2.9-6 2.9-2 8-2h5.4v-0.1q0-4.2-4.4-4.2-1.9 0-4 0.7-2.1 0.8-3.6 1.9l-3.3-4.7q5.2-3.8 11.8-3.8 4.8 0 7.8 2.4 3 2.4 3 7.6zm-7.3-10v-1.3h-4.6q-4.4 0-4.4 2.7 0 1.5 1.1 2.2 1 0.8 3 0.8 1.9 0 3.4-1.2 1.5-1.2 1.5-3.2z"/>
			<path id="&lt;Compound Path&gt;" class="s3" d="m682.5 205.2h-7.3v-36.2h7.3v18.6l8.2-8.7h9.2l-10 10.6 10.4 15.7h-8.7l-6.7-10.1-2.4 2.5z"/>
			<path id="&lt;Compound Path&gt;" class="s3" d="m739.9 187.8h7.7v12.1q-5.1 5.7-14 5.7-7.5 0-12.6-5-5.1-5-5.1-12.5 0-7.6 5.2-12.7 5.2-5.1 12.5-5.1 7.3 0 12.7 4.9l-3.9 5.7q-2.3-2-4.2-2.8-2-0.7-4.2-0.7-4.3 0-7.3 2.9-3 3-3 7.8 0 4.8 2.9 7.7 2.8 2.9 6.8 2.9 3.9 0 6.5-1.5z"/>
			<path id="&lt;Compound Path&gt;" class="s3" d="m761 205.2h-7.4v-36.2h7.4z"/>
			<path id="&lt;Compound Path&gt;" fill-rule="evenodd" class="s3" d="m794.1 192.1q0 5.7-4 9.6-3.9 3.9-9.9 3.9-5.9 0-9.9-3.9-3.9-3.9-3.9-9.6 0-5.7 3.9-9.7 4-3.9 9.9-3.9 6 0 9.9 3.9 4 4 4 9.7zm-20.4 0q0 3.2 1.8 5.2 1.9 2 4.7 2 2.9 0 4.7-2 1.8-2 1.8-5.2 0-3.2-1.8-5.3-1.8-2-4.7-2-2.8 0-4.7 2-1.8 2.1-1.8 5.3z"/>
			<path id="&lt;Compound Path&gt;" fill-rule="evenodd" class="s3" d="m814.6 178.5q4.8 0 8.3 3.8 3.6 3.7 3.6 9.5 0 5.9-3.7 9.8-3.6 4-8.3 4-4.6 0-7.7-3.9v3.5h-7.3v-36.2h7.3v12.9q3-3.4 7.8-3.4zm-7.9 13.6q0 3.2 1.8 5.2 1.8 2 4.3 2 2.5 0 4.4-2 1.9-2 1.9-5.2 0-3.1-1.8-5.3-1.9-2.1-4.4-2.1-2.6 0-4.4 2.1-1.8 2.1-1.8 5.3z"/>
			<path id="&lt;Compound Path&gt;" fill-rule="evenodd" class="s3" d="m854.2 205.2h-6.8v-3.2q-2.9 3.6-7 3.6-4.2 0-7-2.4-2.9-2.5-2.9-6.5 0-4 3-6 2.9-2 8-2h5.4v-0.1q0-4.2-4.4-4.2-1.9 0-4 0.7-2.2 0.8-3.6 1.9l-3.3-4.7q5.2-3.8 11.8-3.8 4.8 0 7.8 2.4 3 2.4 3 7.6zm-7.3-10v-1.3h-4.6q-4.4 0-4.4 2.7 0 1.5 1.1 2.2 1 0.8 3 0.8 1.9 0 3.4-1.2 1.5-1.2 1.5-3.2z"/>
			<path id="&lt;Compound Path&gt;" class="s3" d="m868.2 205.2h-7.3v-36.2h7.3z"/>
			<path id="&lt;Compound Path&gt;" class="s3" d="m882.4 205.2h-7.3v-36.2h7.3z"/>
			<path id="&lt;Compound Path&gt;" class="s3" d="m893.9 215.5q-3.8 0-7.3-3.1l3.4-5.4q1.8 1.8 3.8 1.8 1 0 1.7-1 0.7-1 0.7-2.1 0-1.2-10.1-26.7h7.8l6.4 16.3 6.4-16.3h7.8l-12.2 30.9q-1.1 2.6-3.4 4.1-2.2 1.5-5 1.5z"/>
		</g>
		<path id="&lt;Path&gt;" class="s0" d="m529.4 191.8c0 3.3-2.6 5.9-5.9 5.9-3.3 0-5.9-2.6-5.9-5.9 0-3.3 2.6-5.9 5.9-5.9 3.3 0 5.9 2.6 5.9 5.9z"/>
	</g>
</svg>